<svg xmlns="http://www.w3.org/2000/svg" xmlns:xlink="http://www.w3.org/1999/xlink" xml:space="preserve" version="1.1" style="shape-rendering:geometricPrecision;text-rendering:geometricPrecision;image-rendering:optimizeQuality;" viewBox="0 0 123 153.75" x="0px" y="0px" fill-rule="evenodd" clip-rule="evenodd"><defs><style type="text/css">
   
    .fil0 {fill:black}
   
  </style></defs><g><path class="fil0" d="M49 85l12 37c25,0 47,-15 57,-37l-69 0z"/><path class="fil0" d="M34 57l-31 23c7,23 28,40 52,42l-21 -65z"/><polygon class="fil0" points="61,38 39,54 47,80 75,80 84,54 "/><path class="fil0" d="M103 16l-22 64 39 0c7,-23 0,-48 -17,-64z"/><path class="fil0" d="M26 11c-20,14 -30,40 -24,63l55 -41 -31 -23z"/><path class="fil0" d="M31 8l55 40 12 -36c-20,-15 -47,-16 -68,-4z"/></g><text x="0" y="138" fill="#000000" font-size="5px" font-weight="bold" font-family="'Helvetica Neue', Helvetica, Arial-Unicode, Arial, Sans-serif">Created by Iconnic</text><text x="0" y="143" fill="#000000" font-size="5px" font-weight="bold" font-family="'Helvetica Neue', Helvetica, Arial-Unicode, Arial, Sans-serif">from the Noun Project</text></svg>